# Blender 4.0.2
# www.blender.org
mtllib arrow.mtl
o Cylinder
v 0.000960 1.501078 -0.038670
v 0.020643 -0.000161 -0.032687
v 0.018648 1.501078 -0.033528
v 0.032623 1.501078 -0.020684
v 0.033462 -0.000161 -0.018685
v 0.038594 -0.000161 -0.000962
v 0.038594 1.501078 0.000962
v 0.027127 1.501078 0.028855
v 0.028799 -0.000160 0.027181
v 0.000960 -0.000160 0.038670
v -0.000960 1.501078 0.038670
v -0.020643 -0.000160 0.032687
v -0.018648 1.501078 0.033528
v -0.032623 1.501078 0.020683
v -0.033462 -0.000160 0.018685
v -0.038594 -0.000160 0.000962
v -0.038594 1.501078 -0.000962
v -0.027127 1.501078 -0.028855
v -0.028799 -0.000161 -0.027181
v -0.000960 -0.000161 -0.038670
vn 0.7376 -0.0005 -0.6752
vn -0.7376 -0.0005 0.6752
vn 0.9605 0.0004 -0.2781
vn 0.6767 0.0005 -0.7363
vn 0.9249 0.0006 0.3802
vn 0.3299 0.0004 0.9440
vn -0.2669 -0.0002 0.9637
vn -0.9605 0.0004 0.2781
vn -0.6767 0.0005 0.7363
vn -0.9249 0.0006 -0.3802
vn -0.0000 1.0000 -0.0000
vn 0.2669 -0.0002 -0.9637
vn -0.3299 0.0004 -0.9440
vn -0.0000 -1.0000 -0.0000
vn 0.9640 0.0002 -0.2659
vn 0.9444 -0.0004 0.3287
vn 0.3815 -0.0006 0.9244
vn -0.2791 -0.0004 0.9602
vn -0.9640 0.0002 0.2659
vn -0.9444 -0.0004 -0.3287
vn 0.2791 -0.0004 -0.9602
vn -0.3815 -0.0006 -0.9244
vt 0.839652 1.000000
vt 0.830933 0.500000
vt 0.910348 0.500000
vt 0.339652 1.000000
vt 0.330933 0.500000
vt 0.410348 0.500000
vt 0.746097 1.000000
vt 0.753903 0.500000
vt 0.919067 1.000000
vt 0.630190 0.500000
vt 0.619810 1.000000
vt 0.503903 0.500000
vt 0.496097 1.000000
vt 0.419067 1.000000
vt 0.246097 1.000000
vt 0.253903 0.500000
vt 0.130190 0.500000
vt 0.119810 1.000000
vt 0.366318 0.458649
vt 0.049752 0.123582
vt 0.244152 0.012924
vt 0.987183 0.500000
vt 0.011857 0.500000
vt 0.012817 1.000000
vt 0.512923 0.244152
vt 0.958649 0.366318
vt 0.918376 0.092355
vt 0.407645 0.081624
vt 0.487077 0.244152
vt 0.450248 0.376418
vt 0.255848 0.487077
vt 0.092355 0.418376
vt 0.012924 0.255848
vt 0.133682 0.041351
vt 0.988143 1.000000
vt 0.755848 0.012924
vt 0.623582 0.049752
vt 0.541351 0.133682
vt 0.581624 0.407645
vt 0.744152 0.487077
vt 0.876418 0.450248
vt 0.987076 0.255848
s 0
f 4/1/1 5/2/1 2/3/1
f 14/4/2 15/5/2 12/6/2
f 5/2/3 7/7/3 6/8/3
f 3/9/4 4/1/4 2/3/4
f 9/10/5 7/7/5 8/11/5
f 10/12/6 8/11/6 11/13/6
f 10/12/7 13/14/7 12/6/7
f 15/5/8 17/15/8 16/16/8
f 13/14/9 14/4/9 12/6/9
f 19/17/10 17/15/10 18/18/10
f 3/19/11 14/20/11 11/21/11
f 20/22/12 3/9/12 2/3/12
f 20/23/13 18/18/13 1/24/13
f 16/25/14 5/26/14 9/27/14
f 5/2/15 4/1/15 7/7/15
f 9/10/16 6/8/16 7/7/16
f 10/12/17 9/10/17 8/11/17
f 10/12/18 11/13/18 13/14/18
f 15/5/19 14/4/19 17/15/19
f 19/17/20 16/16/20 17/15/20
f 11/21/11 8/28/11 7/29/11
f 7/29/11 4/30/11 3/19/11
f 3/19/11 1/31/11 18/32/11
f 18/32/11 17/33/11 14/20/11
f 14/20/11 13/34/11 11/21/11
f 11/21/11 7/29/11 3/19/11
f 3/19/11 18/32/11 14/20/11
f 20/22/21 1/35/21 3/9/21
f 20/23/22 19/17/22 18/18/22
f 9/27/14 10/36/14 12/37/14
f 12/37/14 15/38/14 16/25/14
f 16/25/14 19/39/14 20/40/14
f 20/40/14 2/41/14 5/26/14
f 5/26/14 6/42/14 9/27/14
f 9/27/14 12/37/14 16/25/14
f 16/25/14 20/40/14 5/26/14
o Cone
v 0.000000 1.501220 -0.150000
v 0.029264 1.501220 -0.147118
v 0.057403 1.501220 -0.138582
v 0.083336 1.501220 -0.124720
v 0.106066 1.501220 -0.106066
v 0.124720 1.501220 -0.083336
v 0.138582 1.501220 -0.057403
v 0.147118 1.501220 -0.029264
v 0.150000 1.501220 0.000000
v 0.147118 1.501220 0.029264
v 0.138582 1.501220 0.057403
v 0.124720 1.501220 0.083336
v 0.106066 1.501220 0.106066
v 0.083336 1.501220 0.124720
v 0.057403 1.501220 0.138582
v 0.029264 1.501220 0.147118
v 0.000000 1.501220 0.150000
v -0.029264 1.501220 0.147118
v -0.057403 1.501220 0.138582
v -0.083336 1.501220 0.124720
v -0.106066 1.501220 0.106066
v -0.124720 1.501220 0.083336
v -0.138582 1.501220 0.057403
v -0.147118 1.501220 0.029264
v -0.150000 1.501220 0.000000
v -0.147118 1.501220 -0.029264
v -0.138582 1.501220 -0.057403
v -0.124720 1.501220 -0.083336
v -0.106066 1.501220 -0.106066
v -0.083336 1.501220 -0.124720
v -0.057403 1.501220 -0.138582
v -0.029264 1.501220 -0.147118
v 0.000000 1.841219 0.000000
vn 0.0897 0.4020 -0.9112
vn 0.2658 0.4020 -0.8762
vn 0.4316 0.4020 -0.8075
vn 0.5809 0.4020 -0.7078
vn 0.7078 0.4020 -0.5809
vn 0.8075 0.4020 -0.4316
vn 0.8762 0.4020 -0.2658
vn 0.9112 0.4020 -0.0897
vn 0.9112 0.4020 0.0897
vn 0.8762 0.4020 0.2658
vn 0.8075 0.4020 0.4316
vn 0.7078 0.4020 0.5809
vn 0.5809 0.4020 0.7078
vn 0.4316 0.4020 0.8075
vn 0.2658 0.4020 0.8762
vn 0.0897 0.4020 0.9112
vn -0.0897 0.4020 0.9112
vn -0.2658 0.4020 0.8762
vn -0.4316 0.4020 0.8075
vn -0.5809 0.4020 0.7078
vn -0.7078 0.4020 0.5809
vn -0.8075 0.4020 0.4316
vn -0.8762 0.4020 0.2658
vn -0.9112 0.4020 0.0897
vn -0.9112 0.4020 -0.0897
vn -0.8762 0.4020 -0.2658
vn -0.8075 0.4020 -0.4316
vn -0.7078 0.4020 -0.5809
vn -0.5809 0.4020 -0.7078
vn -0.4316 0.4020 -0.8075
vn -0.0000 -1.0000 -0.0000
vn -0.2658 0.4020 -0.8762
vn -0.0897 0.4020 -0.9112
vt 0.250000 0.490000
vt 0.250000 0.250000
vt 0.296822 0.485388
vt 0.341844 0.471731
vt 0.383337 0.449553
vt 0.419706 0.419706
vt 0.449553 0.383337
vt 0.471731 0.341844
vt 0.485388 0.296822
vt 0.490000 0.250000
vt 0.485388 0.203178
vt 0.471731 0.158156
vt 0.449553 0.116663
vt 0.419706 0.080294
vt 0.383337 0.050447
vt 0.341844 0.028269
vt 0.296822 0.014612
vt 0.250000 0.010000
vt 0.203178 0.014612
vt 0.158156 0.028269
vt 0.116663 0.050447
vt 0.080294 0.080294
vt 0.050447 0.116663
vt 0.028269 0.158156
vt 0.014612 0.203178
vt 0.010000 0.250000
vt 0.014612 0.296822
vt 0.028269 0.341844
vt 0.050447 0.383337
vt 0.080294 0.419706
vt 0.116663 0.449553
vt 0.158156 0.471731
vt 0.750000 0.490000
vt 0.796822 0.485388
vt 0.841844 0.471731
vt 0.883337 0.449553
vt 0.919706 0.419706
vt 0.949553 0.383337
vt 0.971731 0.341844
vt 0.985388 0.296822
vt 0.990000 0.250000
vt 0.985388 0.203178
vt 0.971731 0.158156
vt 0.949553 0.116663
vt 0.919706 0.080294
vt 0.883337 0.050447
vt 0.841844 0.028269
vt 0.796822 0.014612
vt 0.750000 0.010000
vt 0.703178 0.014612
vt 0.658156 0.028269
vt 0.616663 0.050447
vt 0.580294 0.080294
vt 0.550447 0.116663
vt 0.528269 0.158156
vt 0.514612 0.203178
vt 0.510000 0.250000
vt 0.514612 0.296822
vt 0.528269 0.341844
vt 0.550447 0.383337
vt 0.580294 0.419706
vt 0.616663 0.449553
vt 0.658156 0.471731
vt 0.703178 0.485388
vt 0.203178 0.485388
s 0
f 21/43/23 53/44/23 22/45/23
f 22/45/24 53/44/24 23/46/24
f 23/46/25 53/44/25 24/47/25
f 24/47/26 53/44/26 25/48/26
f 25/48/27 53/44/27 26/49/27
f 26/49/28 53/44/28 27/50/28
f 27/50/29 53/44/29 28/51/29
f 28/51/30 53/44/30 29/52/30
f 29/52/31 53/44/31 30/53/31
f 30/53/32 53/44/32 31/54/32
f 31/54/33 53/44/33 32/55/33
f 32/55/34 53/44/34 33/56/34
f 33/56/35 53/44/35 34/57/35
f 34/57/36 53/44/36 35/58/36
f 35/58/37 53/44/37 36/59/37
f 36/59/38 53/44/38 37/60/38
f 37/60/39 53/44/39 38/61/39
f 38/61/40 53/44/40 39/62/40
f 39/62/41 53/44/41 40/63/41
f 40/63/42 53/44/42 41/64/42
f 41/64/43 53/44/43 42/65/43
f 42/65/44 53/44/44 43/66/44
f 43/66/45 53/44/45 44/67/45
f 44/67/46 53/44/46 45/68/46
f 45/68/47 53/44/47 46/69/47
f 46/69/48 53/44/48 47/70/48
f 47/70/49 53/44/49 48/71/49
f 48/71/50 53/44/50 49/72/50
f 49/72/51 53/44/51 50/73/51
f 50/73/52 53/44/52 51/74/52
f 21/75/53 22/76/53 23/77/53 24/78/53 25/79/53 26/80/53 27/81/53 28/82/53 29/83/53 30/84/53 31/85/53 32/86/53 33/87/53 34/88/53 35/89/53 36/90/53 37/91/53 38/92/53 39/93/53 40/94/53 41/95/53 42/96/53 43/97/53 44/98/53 45/99/53 46/100/53 47/101/53 48/102/53 49/103/53 50/104/53 51/105/53 52/106/53
f 51/74/54 53/44/54 52/107/54
f 52/107/55 53/44/55 21/43/55
